<svg id="Layer_1" height="512" viewBox="0 0 512 512" width="512" xmlns="http://www.w3.org/2000/svg" data-name="Layer 1"><path d="m325.01 137.21c10.53 42.78 43.41 93.93 43.41 171.56 0 84.28-45.01 192.23-102.16 192.23h-20.52c-57.15 0-102.16-107.95-102.16-192.23 0-77.63 32.88-128.78 43.41-171.56 7.35-29.85 18.99-105.14 53.38-105.14h31.26c34 0 46.03 75.29 53.38 105.14z" fill="#acd452"/><path d="m226.16 32.4a51.536 51.536 0 0 1 5.89-.33h8.32c-34.39 0-46.03 75.29-53.38 105.14-10.53 42.78-43.41 93.93-43.41 171.56 0 84.28 45.01 192.23 102.16 192.23h-5.46c-87.59 0-156.57-107.94-156.57-192.23 0-77.63 50.39-128.78 66.53-171.56 10.83-28.71 27.75-99.45 75.92-104.81z" fill="#76b035"/><path d="m285.85 32.41c47.63 5.42 65.09 76.11 75.91 104.8 16.14 42.78 66.53 93.93 66.53 171.56 0 84.29-68.98 192.23-156.57 192.23h-5.46c57.15 0 102.16-107.95 102.16-192.23 0-77.63-32.88-128.78-43.41-171.56-7.35-29.85-19.38-105.14-53.38-105.14h8.32a51.536 51.536 0 0 1 5.89.33z" fill="#76b035"/><path d="m397.864 411.654-5.184 1.713c-83.167 27.483-182.531-53.367-208.98-133.396-24.358-73.71 7.439-138.088 9.341-183.771.487-11.719-.105-29.549 1.435-48.234-24.873 23.754-36.225 68-44.238 89.244-16.14 42.78-66.53 93.93-66.53 171.56.002 84.29 68.982 192.23 156.572 192.23h31.44c53.151 0 99.444-39.749 127.635-89.838z" fill="#cfe259"/><path d="m285.84 32.4a51.536 51.536 0 0 0 -5.89-.33h-47.9a51.536 51.536 0 0 0 -5.89.33c.64-.9 15.38-21.4 29.84-21.4 13.06 0 29.22 20.6 29.84 21.4z" fill="#50dd5a"/><path d="m240.281 507h31.438c42.339 0 83.511-23.76 115.93-66.9 29.208-38.869 46.645-87.963 46.645-131.326 0-55.369-25.056-97.962-45.19-132.186-8.713-14.811-16.943-28.8-21.729-41.489-1.357-3.6-2.808-7.836-4.487-12.739-11.561-33.76-30.424-88.832-73.888-95.598-4.939-5.937-19.379-21.762-33-21.762-14.83 0-28.388 15.643-33.13 21.772-43.643 6.787-62.229 61.547-73.624 95.12-1.728 5.092-3.221 9.489-4.621 13.2-4.786 12.688-13.016 26.678-21.729 41.489-20.134 34.224-45.19 76.817-45.19 132.186 0 43.363 17.437 92.457 46.645 131.326 32.419 43.147 73.591 66.907 115.93 66.907zm111.254-380.755c1.64 4.789 3.19 9.313 4.613 13.086 5.148 13.65 13.631 28.071 22.613 43.338 20.406 34.687 43.533 74 43.533 126.1 0 40.855-16.537 87.253-44.238 124.117-20 26.62-43.395 45.279-68.129 54.81 12.446-11.44 24.039-27.78 34.23-48.565 18.95-38.649 30.263-87.383 30.263-130.363 0-54.846-16.27-97.234-29.343-131.293-5.7-14.859-11.091-28.894-14.242-41.7-.892-3.625-1.841-7.871-2.939-12.787-3.846-17.21-9.114-40.779-17.241-60.035a99.062 99.062 0 0 0 -11.179-20.333c28.169 13.88 42.717 56.348 52.059 83.625zm-95.535-109.245c4.309 0 10.348 4.089 15.807 9.073h-32.155c4.94-4.707 11.027-9.073 16.348-9.073zm-15.656 21.073h31.311c24.976.042 37.7 56.955 44.53 87.536 1.067 4.776 2.075 9.288 3 13.037 3.33 13.535 8.848 27.911 14.691 43.131 13.38 34.86 28.546 74.37 28.546 126.993 0 41.237-10.855 88-29.037 125.08-19.056 38.861-43.523 61.15-67.129 61.15h-20.512c-23.606 0-48.073-22.288-67.127-61.149-18.182-37.084-29.037-83.843-29.037-125.08 0-52.623 15.166-92.134 28.546-126.994 5.843-15.22 11.361-29.595 14.691-43.13.954-3.876 1.993-8.565 3.092-13.53 6.735-30.41 19.268-87.002 44.435-87.044zm-107.1 144.6c8.982-15.267 17.465-29.688 22.613-43.338 1.472-3.9 3.068-8.6 4.757-13.582 9.166-27 23.419-68.986 51.442-82.965-14.642 20.076-22.21 54.233-27.858 79.738-1.131 5.106-2.108 9.516-3.028 13.257-3.151 12.8-8.538 26.838-14.242 41.7-13.078 34.052-29.348 76.44-29.348 131.287 0 42.98 11.313 91.714 30.263 130.363 10.191 20.785 21.784 37.125 34.23 48.565-24.734-9.531-48.126-28.19-68.129-54.81-27.7-36.864-44.238-83.262-44.238-124.117 0-52.101 23.127-91.415 43.533-126.102z" fill="#151515"/></svg>