<svg id="Layer_1" height="512" viewBox="0 0 512 512" width="512" xmlns="http://www.w3.org/2000/svg" data-name="Layer 1"><path d="m375.6 86.61-12.1 4.56a88.544 88.544 0 0 1 -104.85-33.7l1.34-.67a88.568 88.568 0 0 1 102.33 16.53z" fill="#c2e542"/><path d="m362.32 73.33a88.574 88.574 0 0 0 -15.431-12.3 88.593 88.593 0 0 1 -70.04 16.317 88.56 88.56 0 0 0 86.651 13.823l12.1-4.56z" fill="#b0cc3a"/><path d="m384.91 342.11c9.92 93.12-68.96 158.89-129.34 158.89-58.6 0-129.33-65.24-129.33-158.89 0-73.4 49.85-118.4 56.45-152.99 9.89-51.83 34.19-95.55 72.88-95.55 42.9 0 66.15 43.21 72.88 95.55 6.28 48.83 48.37 77 56.46 152.99z" fill="#4b651a"/><path d="m247.046 359.71c-33.731-65.19-10.136-128.066-20.171-161.82-10.392-34.961-12.88-69.638-2.082-93.595-21.126 16.078-35.163 48.454-42.1 84.825-6.6 34.59-56.45 79.59-56.45 152.99 0 93.65 70.73 158.89 129.33 158.89 33.369 0 72.381-20.1 98.939-53.785-40.79-10.44-82.5-39.256-107.466-87.505z" fill="#5c7720"/><g fill="#151515"><path d="m255.57 507c33.122 0 70.311-18.477 97.055-48.219 29.259-32.541 42.844-74.2 38.254-117.3-4.672-43.865-20.324-72.172-34.134-97.147-10.59-19.151-19.735-35.691-22.345-55.976-3.674-28.566-11.937-52.789-23.895-70.051-12.474-18.007-29.015-28.407-48.145-30.383.619-5.205 1.03-10.069 1.247-14.662a94.946 94.946 0 0 0 39.756 25.054 94.523 94.523 0 0 0 28.907 4.513 94.709 94.709 0 0 0 33.343-6.045l12.1-4.556a6 6 0 0 0 2.128-9.858l-13.28-13.278a94.39 94.39 0 0 0 -103.838-20.146c-1.905-14.249-6.284-26.529-12.591-40.425a6 6 0 1 0 -10.927 4.958c10.7 23.583 15.212 41.21 11.078 74.348-17.9 1.723-34.017 12.227-46.872 30.648-12.02 17.225-21.223 41.265-26.611 69.525-2.183 11.443-9.921 24.828-18.88 40.327-16.788 29.04-37.68 65.181-37.68 113.79 0 44.511 15.7 86.616 44.217 118.558 25.893 29.005 59.956 46.325 91.113 46.325zm102.505-429.423 6.7 6.7-3.39 1.276a82.166 82.166 0 0 1 -93.607-25.735 82.423 82.423 0 0 1 90.297 17.759zm-189.769 156.751c9.5-16.443 17.714-30.644 20.278-44.084 10.833-56.774 35.872-90.67 66.982-90.673h.018c18.149 0 33.308 8.606 45.057 25.566 10.869 15.689 18.427 38.079 21.857 64.748 2.9 22.556 13.026 40.867 23.745 60.252 13.26 23.979 28.288 51.158 32.7 92.61 4.226 39.675-8.291 78.034-35.245 108.011-24.534 27.289-58.304 44.242-88.128 44.242-27.793 0-58.508-15.821-82.164-42.321-26.548-29.741-41.169-69.008-41.169-110.567 0-45.389 19.999-79.986 36.069-107.784z"/><path d="m168.131 361.822a176.642 176.642 0 0 1 -1.1-19.71c0-36.855 13.382-66.5 25.039-88.215a6 6 0 1 0 -10.57-5.677c-12.322 22.95-26.467 54.362-26.467 93.892a188.931 188.931 0 0 0 1.175 21.053 6 6 0 0 0 5.955 5.329 6.236 6.236 0 0 0 .679-.038 6 6 0 0 0 5.289-6.634z"/><path d="m177.36 416.853a6 6 0 0 0 3.158-7.876c-1.7-3.975-3.263-8.075-4.648-12.186a6 6 0 1 0 -11.372 3.831c1.485 4.409 3.163 8.807 4.986 13.072a6 6 0 0 0 7.876 3.159z"/></g></svg>