<svg id="Layer_1" enable-background="new 0 0 512 512" viewBox="0 0 512 512" xmlns="http://www.w3.org/2000/svg"><g id="XMLID_21_"><path id="XMLID_22_" d="m359.5 79.2c7.6-1.9 15.6-2.9 23.9-2.9 54 0 97.8 43.8 97.8 97.8 0 6.3-.6 12.5-1.7 18.4-1.9 10-5.3 19.4-10 28.1-5.8 10.6-13.4 20.1-22.5 27.9-17.1 14.6-39.3 23.4-63.5 23.4-28.9 0-54.9-12.5-72.8-32.5-17.1 8.9-36.6 13.7-57.2 13.1-18.7-.5-36.2-5.3-51.6-13.5l-.2.4c-17.9 20-43.9 32.5-72.8 32.5-24.2 0-46.4-8.8-63.5-23.4-9.1-7.8-16.8-17.2-22.5-27.9-4.7-8.6-8.1-18.1-10-28.1-1.1-6-1.7-12.1-1.7-18.4 0-54 43.8-97.8 97.8-97.8 8.2 0 16.2 1 23.8 2.9l.8.5c20.1-37.7 60.4-62.8 106.1-61.6 43.3 1.2 80.4 25.7 99.8 61.1z" fill="#fffed7"/></g><g id="XMLID_3_"><path id="XMLID_4_" d="m479.4 162.6c-1.9 10-5.3 19.4-10 28.1-5.8 10.6-13.4 20.1-22.5 27.9-17.1 14.6-39.3 23.4-63.5 23.4-28.9 0-54.9-12.5-72.8-32.5-17.1 8.9-36.6 13.7-57.2 13.1-18.7-.5-36.2-5.3-51.6-13.5l-.2.4c-17.9 20-43.9 32.5-72.8 32.5-24.2 0-46.4-8.8-63.5-23.4-9.1-7.8-16.8-17.2-22.5-27.9-4.7-8.6-8.1-18.1-10-28.1-.2-1.2-.4-2.3-.6-3.5-.8 4.9-1.2 9.9-1.2 15.1 0 6.3.6 12.5 1.7 18.4 1.9 10 5.3 19.4 10 28.1 5.8 10.6 13.4 20.1 22.5 27.9 17.1 14.6 39.3 23.4 63.5 23.4 28.9 0 54.9-12.5 72.8-32.5l.2-.4c15.5 8.2 33 13 51.6 13.5 20.6.6 40.1-4.2 57.2-13.1 17.9 20 43.9 32.5 72.8 32.5 24.2 0 46.4-8.8 63.5-23.4 9.1-7.8 16.8-17.2 22.5-27.9 4.7-8.6 8.1-18.1 10-28.1 1.1-6 1.7-12.1 1.7-18.4 0-5.1-.4-10.2-1.2-15.1 0 1.1-.2 2.3-.4 3.5z" fill="#f4efbe"/></g><path d="m480.1 193.2c23.2 19.1 26.6 53.4 7.5 76.6-17.2 20.9-47.1 26-70.3 12-4.1-2.5-7.9-5.6-11.3-9.1l-.1-.6c37-9.2 65.3-39 72.5-76.5.2-.8.3-1.7.4-2.5z" fill="#fffed7"/><path d="m42.5 222.7c-4.8-8.8-7.2-22.5-9.1-32.3l-2.5 1.9c-16.8 13.8-23.8 36.2-17.8 57.1 8.3 28.8 38.4 45.5 67.3 37.2 9.4-2.7 17.9-7.9 24.5-14.9l.1-.6c-26.7-6.6-49.4-24.2-62.5-48.4z" fill="#fffed7"/><path d="m351.7 266.6-.1.3s-24.7 75.2-33.5 93.7c-2.8 5.8-9.1 9.2-15.5 8.2-8-1.2-13.5-8.8-12.3-16.8l16.8-110.1-38 9.9-23.7 133.2c-.9 3.7-3.4 6.9-6.9 8.4-6 2.7-13.1 0-15.8-6.1-10.3-23.2-43.5-96.9-61.2-120.4l-.2-.6c-14.5 5.1-29.9 6.8-45.1 4.8 22.1 41.3 40.2 80.7 54.3 114.4 14.3 34.3 24.4 62.9 30.2 81.6 4.9 15.8 19.5 26.6 36.1 26.6h40.8c16.2 0 30.5-10.2 35.8-25.4l28.7-82.6 40-113.8z" fill="#cadd78"/><g fill="#a5ad53"><path d="m351.7 266.7-.1.3s-19 57.9-29.6 84.6c2.6 4.6 7.5 7.5 12.8 7.5 5.7 0 10.9-3.3 13.3-8.4 6.3-13.3 21-56.1 28.6-79-8.5-.6-16.9-2.2-25-5z"/><path d="m268.5 383.5c3.5-1.5 6-4.7 6.9-8.4l23.2-131.4c-9.5 3.7-19.4 7.1-29.5 8.1l-20.7 116c1.7 3.8 3.2 7 4.3 9.6 2.7 6.1 9.8 8.8 15.8 6.1z"/><path d="m230.8 457.3c-5.8-18.9-16-47.4-30.3-81.7-13.1-31.5-29.8-67.8-49.9-106.1-11.3 2.6-22.9 3.2-34.4 1.7 22.1 41.3 40.2 80.6 54.3 114.4 14.3 34.3 24.5 62.8 30.3 81.7 4.9 15.9 19.6 26.7 36.1 26.6h40.8c9.5 0 18.6-3.6 25.6-10h-36.4c-16.6 0-31.2-10.8-36.1-26.6z"/></g><path d="m407 269c-7.7 1.9-17.7 2.9-25.6 2.9-.1 0-.2 0-.2 0l-39 113.9 75.9-106.7.2-.3z" fill="#c4d36e"/><path d="m116.2 271.1c-3.8-.5-7.5-1.2-11.1-2.1l-24.6 15.6 90 100.9c-14.1-33.7-32.3-73-54.3-114.4z" fill="#cadd78"/><path d="m486.4 186.9c.5-4.2.8-8.5.8-12.7 0-57.2-46.6-103.8-103.8-103.8-7 0-14 .7-20.9 2.1-20.9-35.1-58.8-59.1-102.6-60.3-1.1 0-2.2 0-3.4 0-44.8 0-84.4 24.2-106 60.5-7.1-1.5-14.4-2.3-21.8-2.3-57.2 0-103.8 46.6-103.8 103.8 0 4.3.3 8.5.8 12.7-15.8 13.8-23.3 35-19.8 55.7 5.1 29.4 30.6 50.1 59.5 50.1 3.4 0 6.8-.3 10.3-.9.9-.2 1.8-.3 2.7-.5l87 97.5c13.3 31.8 23.3 59.6 29.7 80.2 5.7 18.5 22.5 30.9 41.9 30.9h40.8c18.7 0 35.3-11.8 41.4-29.5l28.4-81.8 72.6-102c5.1 2.5 10.5 4.2 16.2 5.2 3.5.6 6.9.9 10.3.9 28.8 0 54.4-20.8 59.5-50.1 3.5-20.8-4.1-41.9-19.8-55.7zm-357.7-104.6c5.4 0 10.7.5 16 1.4-6.8 14.7-10.8 31.1-11.3 48.3-.1 3.3 2.5 6.1 5.8 6.2s6.1-2.5 6.2-5.8c1.6-61.4 52.8-109.9 114.1-108.2s109.8 52.9 108.2 114.2c-.1 3.3 2.5 6.1 5.8 6.2h.2c3.2 0 5.9-2.6 6-5.8.5-19.7-3.6-38.4-11.4-55.1 4.9-.8 10-1.2 15-1.2 50.6 0 91.8 41.2 91.8 91.8 0 5.8-.5 11.7-1.6 17.3-1.8 9.2-4.9 18.1-9.4 26.3-5.4 10-12.5 18.8-21.2 26.1-16.6 14.2-37.8 22-59.6 22-23.5 0-46.1-9.1-63.1-25.1 6.6-4 12.8-8.6 18.7-13.9 2.5-2.2 2.7-6 .4-8.5s-6-2.7-8.5-.4c-21.3 19.1-48.8 29.3-77.4 28.5-26.7-.7-52.2-11-71.9-29-2.4-2.2-6.2-2.1-8.5.4-2.2 2.4-2.1 6.2.4 8.5 5.8 5.3 12 9.9 18.6 14-17 16.3-39.8 25.5-63.5 25.5-21.9 0-43-7.8-59.6-22-8.6-7.4-15.8-16.2-21.2-26.1-4.5-8.3-7.6-17.1-9.4-26.3-1.1-5.7-1.6-11.5-1.6-17.3.2-50.8 41.4-92 92-92zm215.5 188c-5.7 17.2-24.3 72.7-31.5 87.8-1.4 3-4.5 5-7.9 5-2.6 0-5-1.1-6.6-3-1.7-1.9-2.4-4.5-2-7l15.9-103.4c9.4 8.8 20.3 15.7 32.1 20.6zm-82.3-11.8-22.3 125.5c-.6 2.7-3.1 4.6-5.8 4.6-2.4 0-4.5-1.4-5.5-3.6-11.8-26.7-39.8-88.3-57.9-115.8 12.2-5.4 23.4-13 32.8-22.8 15.5 7.5 32.6 11.6 50 12.1h3.4c1.7.1 3.5 0 5.3 0zm-188.3 21.5c-26.3 4.5-51.4-13.2-55.9-39.5-2.4-14.2 1.6-28.6 10.7-39.4 2.1 7.8 5.1 15.3 8.9 22.4 6.1 11.3 14.1 21.2 23.9 29.6 9.6 8.2 20.5 14.5 32.2 18.7-5.8 4.1-12.5 7-19.8 8.2zm17.2 7.2c6.1-2.8 11.7-6.7 16.6-11.4 1.6.3 3.3.6 4.9.9 14.1 26.6 26.8 52.6 37.8 77.1zm217 179.3c-4.4 12.8-16.5 21.4-30.1 21.4h-40.8c-14 0-26.3-9-30.4-22.4-12.9-41.8-40.5-112.2-79.9-187.6h2.1c10.3 0 20.4-1.5 30.1-4.5 17.8 25.8 49 95.1 58.5 116.4 2.9 6.5 9.3 10.7 16.4 10.7 8.4 0 15.8-6 17.6-14.1 0-.1 0-.2 0-.2l23-128.9c8.8-1.3 17.3-3.5 25.5-6.5l-15.5 100.4c-.9 6 .8 12.1 4.8 16.7 3.9 4.6 9.7 7.2 15.7 7.2 8 0 15.3-4.6 18.7-11.8 7.6-15.9 26.2-71.6 32-89.1 5.8 1.6 11.8 2.7 17.8 3.3zm53.7-118.3 24.4-70.3c6.3-.2 12.6-.9 18.7-2.2 1.7 1.6 3.4 3.2 5.3 4.6zm132.8-107.7c-4.1 23.5-24.6 40.2-47.7 40.2-2.7 0-5.5-.2-8.2-.7-7.3-1.3-14-4.1-19.8-8.2 11.7-4.2 22.6-10.5 32.2-18.7 9.8-8.3 17.8-18.3 23.9-29.6 3.8-7.1 6.8-14.6 8.9-22.4 9.1 10.9 13.1 25.3 10.7 39.4z" fill="#151515"/></svg>