<svg id="Layer_1" height="512" viewBox="0 0 512 512" width="512" xmlns="http://www.w3.org/2000/svg" data-name="Layer 1"><path d="m257.66 84.88c-.75-.02-1.5-.03-2.26-.03-21.01 0-38.05 7.93-38.05 17.71s17.04 17.71 38.05 17.71 38.06-7.93 38.06-17.71c0-9.43-15.83-17.13-35.8-17.68zm-91.1 362.52-.41.21a90.453 90.453 0 0 1 -120.96-85.1c0-45 35.8-71.63 53.32-89.21 21.66-21.74 28.71-55.05 31.08-80.4 6.03-64.44 50.1-128.64 125.84-128.64h1.14c2.37 0 4.7.06 7.01.19h.01c71.44 3.83 112.98 66.03 118.82 128.45 2.37 25.35 9.42 58.55 31.08 80.29 17.52 17.58 53.32 44.26 53.32 89.26a90.428 90.428 0 0 1 -90.43 90.43 87.242 87.242 0 0 1 -30.01-5.21 102.323 102.323 0 0 1 -179.81-.27z" fill="#fb6771"/><path d="m148.262 394.956c-2.758-56.834 31.368-92.2 47.789-115.256 20.3-28.508 25.3-70.92 26.116-103.052 1.024-40.331 11.321-81.032 30.586-112.353-74.1 1.5-117.2 64.929-123.163 128.605-2.37 25.35-9.42 58.66-31.08 80.4-17.52 17.58-53.32 44.21-53.32 89.21a90.424 90.424 0 0 0 116.69 86.5 138.2 138.2 0 0 1 -13.618-54.054z" fill="#e56572"/><path d="m413.49 273.19c-21.66-21.74-28.71-54.94-31.08-80.29-5.84-62.42-47.38-124.62-118.82-128.45h-.01c-.664-.037-1.333-.057-2-.083 30.8 32.855 44.669 85.23 42.437 135.755-1.346 30.457.807 70.826 19.133 99.334 14.825 23.054 46.466 59.162 39.9 112.716a127.453 127.453 0 0 1 -10.5 37.457 87.1 87.1 0 0 0 23.828 3.251 90.428 90.428 0 0 0 90.43-90.43c.002-45-35.798-71.68-53.318-89.26z" fill="#fc838f"/><path d="m257.66 84.88c19.97.55 35.8 8.25 35.8 17.68 0 9.78-17.04 17.71-38.06 17.71s-38.05-7.93-38.05-17.71 17.04-17.71 38.05-17.71c.76 0 1.51.01 2.26.03z" fill="#c64e62"/><g fill="#151515"><path d="m135.619 458.907a96.21 96.21 0 0 0 28.24-4.223 108.24 108.24 0 0 0 185.234.188 93.192 93.192 0 0 0 27.288 4.007 96.535 96.535 0 0 0 96.426-96.427c0-41.522-28.436-68.287-47.253-86-2.838-2.672-5.519-5.195-7.814-7.5-16.254-16.313-26.132-42.091-29.361-76.616-3.27-34.974-16.853-67.608-38.247-91.889-20.663-23.447-47.132-37.499-77.25-41.196a82.215 82.215 0 0 1 71.784-42.251 6 6 0 0 0 0-12 94.284 94.284 0 0 0 -84.828 53.3q-1.631-.037-3.273-.04h-1.13c-36.893 0-69.248 14.589-93.567 42.189-21.394 24.281-34.977 56.915-38.247 91.889-3.236 34.606-13.115 60.421-29.361 76.726-2.3 2.313-5 4.847-7.849 7.529-18.8 17.687-47.218 44.415-47.218 85.914a96.521 96.521 0 0 0 96.426 96.4zm120.881-353.741a6 6 0 0 0 6-6c0-2.681.139-5.33.391-7.945 15.02 1.506 24.566 7.31 24.566 11.336 0 4.661-12.785 11.709-32.055 11.709s-32.054-7.048-32.054-11.709c0-4.284 10.8-10.579 27.511-11.57-.233 2.7-.359 5.423-.359 8.179a6 6 0 0 0 6 6zm-161.868 180.169c2.925-2.751 5.688-5.35 8.129-7.8 18.267-18.333 29.305-46.621 32.808-84.079 3.035-32.468 15.573-62.68 35.3-85.073 21.888-24.842 50.987-38.014 84.171-38.117q-1.368 4.23-2.338 8.626c-23.761.7-41.357 10.638-41.357 23.665 0 13.516 18.939 23.709 44.054 23.709s44.055-10.193 44.055-23.709c0-11.744-14.3-20.975-34.529-23.194a81.541 81.541 0 0 1 2.638-8.6c28.778 2.6 54.039 15.466 73.562 37.623 19.73 22.393 32.268 52.605 35.3 85.073 3.5 37.376 14.534 65.627 32.808 83.968 2.431 2.44 5.18 5.028 8.091 7.767 18.348 17.271 43.477 40.923 43.477 77.261a84.522 84.522 0 0 1 -84.426 84.427 81.527 81.527 0 0 1 -21.517-2.83 107.646 107.646 0 0 0 9.964-45.344 6 6 0 1 0 -12 0 96.3 96.3 0 0 1 -192.591 0 6 6 0 0 0 -12 0 107.653 107.653 0 0 0 9.873 45.148 84.416 84.416 0 0 1 -106.911-81.348c0-36.308 25.107-59.929 43.439-77.173z"/><path d="m161.342 226.239a5.991 5.991 0 0 0 7.2-4.483 212.92 212.92 0 0 0 4.479-28.3 156.266 156.266 0 0 1 21.647-66.456 6 6 0 1 0 -10.248-6.242 168.311 168.311 0 0 0 -23.342 71.579 200.905 200.905 0 0 1 -4.219 26.7 6 6 0 0 0 4.483 7.202z"/><path d="m151.043 259.578a5.99 5.99 0 0 0 2.19-.416c11.3-4.433 12.2-19.776 12.27-21.511a6 6 0 1 0 -11.992-.456c-.092 2.43-1.369 9.5-4.66 10.8a6 6 0 0 0 2.192 11.587z"/></g></svg>