<svg id="Capa_1" data-name="Capa 1" xmlns="http://www.w3.org/2000/svg" viewBox="0 0 480 448.01869">
  <defs>
    <style>
      .cls-1 {
        fill: none;
        stroke: #e73b1e;
        stroke-linecap: round;
        stroke-miterlimit: 10;
        stroke-width: 23.00099px;
      }
    </style>
  </defs>
  <path d="M278.944,17.577a15.9515,15.9515,0,0,0-16.928,1.92L106.368,144.009H32a32.05279,32.05279,0,0,0-32,32v128a32.0322,32.0322,0,0,0,32,32h74.368L261.984,460.521a16.02274,16.02274,0,0,0,16.96,1.888,15.96844,15.96844,0,0,0,9.056-14.4v-416A16.05078,16.05078,0,0,0,278.944,17.577Z" transform="translate(0 -15.99031)"/>
  <path d="M368.992,126.857a16.00922,16.00922,0,0,0-22.496,22.784,127.62539,127.62539,0,0,1,0,180.736,15.98647,15.98647,0,1,0,22.496,22.72C399.328,323.241,416,283.049,416,240.009S399.328,156.777,368.992,126.857Z" transform="translate(0 -15.99031)"/>
  <path d="M414.144,81.769a16.009,16.009,0,1,0-22.56,22.72,190.93962,190.93962,0,0,1,0,271.008,16.009,16.009,0,0,0,22.56,22.72A223.0005,223.0005,0,0,0,414.144,81.769Z" transform="translate(0 -15.99031)"/>
  <line class="cls-1" x1="445" y1="19.00969" x2="37" y2="427.00969"/>
  <line class="cls-1" x1="37" y1="20.00935" x2="445" y2="428.00935"/>
</svg>
