<svg id="Layer_1" height="512" viewBox="0 0 512 512" width="512" xmlns="http://www.w3.org/2000/svg" data-name="Layer 1"><path d="m476.48 35.52a83.737 83.737 0 0 1 0 118.41l-131.54 131.53-.2.3a104.161 104.161 0 0 0 -131.47 12.97 104.161 104.161 0 0 0 12.97-131.47l.3-.2 131.53-131.54a83.743 83.743 0 0 1 118.41 0z" fill="#eae14b"/><path d="m255.373 273.125a104.262 104.262 0 0 0 -14.073-84.471l.3-.2 131.53-131.54a83.758 83.758 0 0 1 96.645-15.68 83.93 83.93 0 0 1 14.373 3.131 83.641 83.641 0 0 0 -126.078-8.845l-131.53 131.54-.3.2a104.161 104.161 0 0 1 -12.97 131.47 103.534 103.534 0 0 1 42.103-25.605z" fill="#c1b742"/><path d="m360.52 298.73a104.125 104.125 0 0 1 0 147.25l-31.96-31.97a54.6 54.6 0 0 0 -77.19 0l-23.46 23.46a108.5 108.5 0 0 1 -138.61 12.38 108.456 108.456 0 0 1 -14.77-165.76l23.46-23.46a54.591 54.591 0 0 0 0-77.19l-31.97-31.96a104.121 104.121 0 1 1 147.25 147.25 104.027 104.027 0 0 1 147.25 0z" fill="#76b035"/><path d="m131.531 453.312a108.458 108.458 0 0 1 -14.769-165.76l23.46-23.459a54.594 54.594 0 0 0 0-77.191l-31.971-31.959a103.669 103.669 0 0 1 60.881-29.714 104.1 104.1 0 0 0 -103.112 26.251l31.97 31.96a54.591 54.591 0 0 1 0 77.19l-23.46 23.46a108.453 108.453 0 0 0 89.1 184.436 107.541 107.541 0 0 1 -32.099-15.214z" fill="#597f28"/><path d="m89.3 449.85-.21 2.18-42.93 42.94a20.6 20.6 0 0 1 -29.13-29.13l42.94-42.93 2.18-.21a109.888 109.888 0 0 0 27.15 27.15z" fill="#6b9930"/><g fill="#151515"><path d="m417.275 5a89.136 89.136 0 0 0 -63.445 26.28l-126.811 126.811a110.062 110.062 0 0 0 -165.239-10.853 6 6 0 0 0 0 8.485l31.962 31.963a48.634 48.634 0 0 1 0 68.7l-23.458 23.461a114.658 114.658 0 0 0 -16.593 140.853l-40.9 40.9a26.593 26.593 0 0 0 37.609 37.611l40.9-40.9a114.678 114.678 0 0 0 140.854-16.6l23.458-23.458a48.638 48.638 0 0 1 68.7 0l31.963 31.963a6 6 0 0 0 8.486 0 110.058 110.058 0 0 0 -10.855-165.239l126.815-126.807a89.725 89.725 0 0 0 -63.446-153.17zm-375.362 485.727a14.594 14.594 0 0 1 -20.64-20.639l39.348-39.347a115.416 115.416 0 0 0 20.638 20.638zm314.363-187.756a98.25 98.25 0 0 1 4.116 134.393l-27.592-27.592a60.646 60.646 0 0 0 -85.672 0l-23.458 23.457a102.459 102.459 0 1 1 -144.9-144.9l23.459-23.458a60.648 60.648 0 0 0 0-85.672l-27.593-27.59a98.122 98.122 0 0 1 134.393 142.877 6 6 0 0 0 8.485 8.485 98.232 98.232 0 0 1 138.762 0zm115.959-153.286-128.4 128.4a110.578 110.578 0 0 0 -105.193-4.728 110.57 110.57 0 0 0 -4.728-105.193l128.4-128.4a77.726 77.726 0 0 1 109.921 109.92z"/><path d="m176.469 327.047-74.984 74.983a6 6 0 0 0 8.485 8.485l74.983-74.984a6 6 0 1 0 -8.484-8.484z"/><path d="m390.919 107.473a18.955 18.955 0 0 0 13.445-5.561l2.761-2.761a6 6 0 1 0 -8.484-8.485l-2.761 2.761a7.016 7.016 0 1 1 -9.922-9.921l2.761-2.76a6 6 0 0 0 -8.485-8.486l-2.76 2.761a19.007 19.007 0 0 0 13.445 32.452z"/><path d="m440.827 132.853-2.761 2.76a7.015 7.015 0 1 1 -9.92-9.921l2.76-2.761a6 6 0 0 0 -8.486-8.484l-2.76 2.761a19.015 19.015 0 0 0 26.891 26.892l2.761-2.761a6 6 0 0 0 -8.485-8.485z"/><path d="m360.549 137.843a18.955 18.955 0 0 0 13.445-5.561l2.761-2.761a6 6 0 1 0 -8.484-8.485l-2.761 2.764a7.015 7.015 0 1 1 -9.921-9.921l2.761-2.761a6 6 0 0 0 -8.487-8.485l-2.759 2.761a19.007 19.007 0 0 0 13.445 32.452z"/><path d="m410.457 163.223-2.761 2.76a7.016 7.016 0 0 1 -9.922-9.921l2.761-2.76a6 6 0 0 0 -8.484-8.486l-2.761 2.761a19.015 19.015 0 0 0 26.891 26.892l2.76-2.761a6 6 0 0 0 -8.484-8.485z"/><path d="m325.219 154.167a7.023 7.023 0 0 1 0-9.921l2.761-2.761a6 6 0 0 0 -8.486-8.485l-2.762 2.761a19.015 19.015 0 0 0 26.892 26.891l2.761-2.76a6 6 0 0 0 -8.485-8.486l-2.76 2.761a7.024 7.024 0 0 1 -9.921 0z"/><path d="m380.086 193.593-2.76 2.761a7.016 7.016 0 0 1 -9.922-9.921l2.761-2.761a6 6 0 0 0 -8.484-8.485l-2.761 2.76a19.015 19.015 0 0 0 26.892 26.891l2.76-2.761a6 6 0 0 0 -8.486-8.484z"/><path d="m307.529 181.776-2.759 2.761a7.015 7.015 0 0 1 -9.922-9.92l2.761-2.761a6 6 0 1 0 -8.484-8.486l-2.763 2.761a19.016 19.016 0 0 0 26.893 26.891l2.761-2.761a6 6 0 1 0 -8.487-8.485z"/><path d="m349.717 223.962-2.761 2.761a7.015 7.015 0 1 1 -9.921-9.921l2.761-2.761a6 6 0 0 0 -8.486-8.484l-2.761 2.761a19.014 19.014 0 0 0 26.891 26.89l2.761-2.76a6 6 0 1 0 -8.484-8.486z"/><path d="m281.782 143.874a6 6 0 0 0 -8.485 0l-12.5 12.5a6 6 0 1 0 8.484 8.486l12.5-12.5a6 6 0 0 0 .001-8.486z"/><path d="m293.392 138.263a5.982 5.982 0 0 0 4.242-1.757l32.526-32.526a6 6 0 0 0 -8.484-8.485l-32.527 32.526a6 6 0 0 0 4.243 10.242z"/><path d="m423.791 79.615a18.888 18.888 0 0 0 13.445-5.57l2.764-2.76a6 6 0 0 0 -8.484-8.487l-2.763 2.762a7.015 7.015 0 1 1 -9.92-9.921l2.761-2.761a6 6 0 1 0 -8.485-8.485l-2.76 2.761a19.016 19.016 0 0 0 13.444 32.461z"/></g></svg>