<svg id="Layer_1" height="512" viewBox="0 0 512 512" width="512" xmlns="http://www.w3.org/2000/svg" data-name="Layer 1"><path d="m143.5 204.54h.01c13.52-26.85 32.5-50.9 51.19-67.48l-.13-.14a124.323 124.323 0 0 0 23.37-125.92 124.087 124.087 0 0 1 38.42 94.16 56.1 56.1 0 0 1 6.39-.38 45.665 45.665 0 0 1 11.15 1.55c-1.3-28.33 6.56-60.24 28.46-81.16-16.63 44.6 9.21 93.04 38.65 126.34 24.62 25.98 47.14 61.55 57.99 103.55a214.332 214.332 0 0 1 5.74 31.97 210.245 210.245 0 0 1 1.08 21.31c0 26.98-3.24 57.01-11.59 85.17 12.18-9.95 22.74-24.27 33.72-50.57 4.85 49.05-24.25 93.74-56.56 101.13v.01c-22.02 33.4-56.5 56.92-108.64 56.92-68.92 0-105.36-34.31-124.17-78.59a202.4 202.4 0 0 1 -10.04-30.53c-6.9-27.9-8.85-57.39-8.85-83.54a233.6 233.6 0 0 1 11.23-71.66c-21.78-24.97-15.82-73.01 9.15-94.79-8.67 25.34-6.5 47.28 3.43 62.65z" fill="#ff5a81"/><g opacity=".4"><path d="m417.705 364.339c-7.5 13.433-15.1 22.334-23.475 29.171 1.851-6.244 3.438-12.582 4.807-18.957a52.123 52.123 0 0 1 -17.448 3.3v.01c-28.778 27.79-67.56 43.219-118.442 31.841-67.26-15.04-95.334-56.474-104.029-103.792a202.442 202.442 0 0 1 -3.136-31.985c-.645-28.733 3.887-57.938 9.593-83.458a234.083 234.083 0 0 1 10.569-34.513 239.827 239.827 0 0 0 -32.632 48.58h-.01c-9.93-15.37-12.1-37.31-3.43-62.65-24.97 21.78-30.93 69.82-9.15 94.79a233.6 233.6 0 0 0 -11.23 71.66c0 26.15 1.95 55.64 8.85 83.54a202.4 202.4 0 0 0 10.04 30.53c18.808 44.284 55.248 78.594 124.168 78.594 52.14 0 86.62-23.52 108.64-56.92v-.01c29.64-6.779 56.558-44.955 57.063-89.085a92.736 92.736 0 0 1 -10.748 9.354z" fill="#ffb3c9"/></g><path d="m415.24 195.66c19.55 26.76 16.26 71.82-10.5 91.37a214.332 214.332 0 0 0 -5.74-31.97c12.47-12.87 19.03-33.43 16.24-59.4z" fill="#ff5a81"/><path d="m138.58 422.41-.5.21c-32.86-4.31-57.38-42.27-53.07-75.12 10.11 24.34 25.92 39.28 43.22 44.46l.31-.08a202.4 202.4 0 0 0 10.04 30.53z" fill="#ff5a81"/><g fill="#151515"><path d="m90.554 345.2a6 6 0 0 0 -11.491 1.521c-4.786 36.5 21.893 75.14 55.451 81.4q2.214 4.908 4.669 9.542c24.378 46.006 65.953 69.337 123.57 69.337 48.522 0 86.3-19.416 112.341-57.689 16.66-4.66 32.468-18.057 43.678-37.137a116.2 116.2 0 0 0 15.146-69.82 6 6 0 0 0 -11.508-1.72c-5.621 13.473-11.1 23.624-16.753 31.618a329.1 329.1 0 0 0 6.164-63.91q0-9.334-.809-18.611c25.992-21.775 30.646-68.077 9.069-97.609a6 6 0 0 0 -10.81 4.18c1.929 17.959-.842 33.718-7.819 45.6a234.5 234.5 0 0 0 -9.637-25.282 251.587 251.587 0 0 0 -46.346-69.12c-52.248-59.124-43.624-103.78-37.49-120.238a6 6 0 0 0 -9.766-6.434c-16.595 15.86-27.182 39.431-29.813 66.372-.386 3.962-.581 7.942-.616 11.905a44.255 44.255 0 0 0 -5.032-.325c-.108 0-.222.009-.331.009a130.226 130.226 0 0 0 -40.337-92.127 6 6 0 0 0 -9.767 6.434 118.257 118.257 0 0 1 -22.241 119.849 6.275 6.275 0 0 0 -.514.682c-17.171 15.5-33.444 36.084-45.836 57.842-4.644-13.244-4.095-29.756 2.023-47.634a6 6 0 0 0 -9.62-6.465c-13.187 11.5-21.983 29.754-24.135 50.088-2.054 19.405 2.395 37.59 12.239 50.511a239.651 239.651 0 0 0 -10.547 70.373c0 27.571 2.126 52 6.436 73.6-12.183-6.981-22.474-19.661-29.568-36.742zm329.991-121.846c3.4 18.2-.7 38.006-11.378 51.192q-1.41-8.967-3.563-17.844c7.645-8.902 12.702-20.264 14.941-33.348zm-291.867-54.315c-.89 22.034 6.918 40.755 22.7 52.68a6 6 0 0 0 8.549-1.369 6.191 6.191 0 0 0 -1.529-8.369 42.577 42.577 0 0 1 -7.9-7.887c12.365-23.569 29.777-46.214 48.181-62.542a5.967 5.967 0 0 0 1.4-1.836 130.178 130.178 0 0 0 30.25-104.764 118.158 118.158 0 0 1 20.071 69.555 5.924 5.924 0 0 0 -.033.813 118.806 118.806 0 0 1 -4.247 27.367 6.156 6.156 0 0 0 3.918 7.536 6 6 0 0 0 7.583-4.107 130.913 130.913 0 0 0 4.45-25.312l.011-.011a32.865 32.865 0 0 1 6.142.484c1.2 14.907 4.827 28.965 10.56 40a6.122 6.122 0 0 0 7.516 3.011 6 6 0 0 0 3.208-8.4c-5.6-10.719-8.934-24.85-9.606-39.787 0-.051 0-.1-.006-.153a125.087 125.087 0 0 1 .453-17.583 105.316 105.316 0 0 1 10.864-38.151c-2.134 45.658 29.54 87.442 45.3 105.271.032.036.067.066.1.1.015.016.025.035.04.052a239.4 239.4 0 0 1 44.216 65.892 210.855 210.855 0 0 1 18.954 86.807c0 20.215-1.9 50.612-10.8 81.587-7.064 5.532-14.75 9.674-23.532 14.025a6.163 6.163 0 0 0 -3.011 7.972 6 6 0 0 0 8.122 2.888c20.15-9.971 35.733-19.317 50.56-44.46a102.6 102.6 0 0 1 -12.736 35.752c-10.073 17.146-24.062 28.856-38.378 32.127a5.975 5.975 0 0 0 -3.8 2.762c-23.718 35.835-58.533 54.011-103.495 54.011-28.216 0-52.373-6.024-71.8-17.9-16.976-10.382-30.827-25.541-41.166-45.057-15.992-30.184-24.1-71.8-24.1-123.7a227.684 227.684 0 0 1 10.03-66.918 11.886 11.886 0 0 0 .3-5.882 11.759 11.759 0 0 0 -2.181-4.767c-11.976-15.666-13.207-41.143-5.158-61.737zm-5.155 227.67q2.383 9.055 5.358 17.383c-10.006-3.87-19.267-11.432-26.326-21.723a70.5 70.5 0 0 1 -8.918-18.035c8.435 10.652 18.595 18.303 29.886 22.375z"/><path d="m165.038 337.467a6 6 0 0 0 2.855-7.991c-4.664-9.847-7.528-26.986-2.333-45.949 13.718 18.573 23.577 41.244 25.834 60.129a6 6 0 0 0 11.916-1.424c-2.917-24.4-16.452-53.089-35.322-74.872a6 6 0 0 0 -10.068 1.608c-11.08 26.416-7.4 51.872-.873 65.644a6 6 0 0 0 7.991 2.855z"/><path d="m262.1 271.006h.107a6 6 0 0 0 6-5.895c.336-19.159.875-49.894 15.2-71.973 8.228 17.831 13.673 39.713 13.673 56.063a6 6 0 1 0 12 0c0-20.837-7.978-49.711-19.4-70.216a6 6 0 0 0 -9.719-1.074c-22.676 25.423-23.352 63.963-23.756 86.989a6 6 0 0 0 5.895 6.106z"/></g></svg>